<?xml version="1.0" encoding="utf-8"?>
<!-- Generator: Adobe Illustrator 26.0.3, SVG Export Plug-In . SVG Version: 6.00 Build 0)  -->
<svg version="1.1" id="Capa_1" xmlns="http://www.w3.org/2000/svg" xmlns:xlink="http://www.w3.org/1999/xlink" x="0px" y="0px"
	 viewBox="0 0 612 792" style="enable-background:new 0 0 612 792;" xml:space="preserve">
<style type="text/css">
	.st0{fill:none;stroke:#000000;stroke-miterlimit:10;}
	.st1{fill:#FFFFFF;stroke:#000000;stroke-width:0.5;stroke-miterlimit:10;}
</style>
<polygon class="st0" points="329.04,458.54 329.04,496.74 252.64,496.74 252.64,496.73 252.62,496.74 214.43,496.74 214.43,439.44 
	233.53,439.44 233.53,477.64 309.94,477.64 309.94,458.54 "/>
<polygon class="st1" points="214.43,404.29 214.43,404.3 214.44,404.3 233.53,423.39 233.53,423.4 233.54,423.4 252.63,442.49 
	252.63,442.5 252.64,442.5 271.73,461.59 290.82,442.5 290.83,442.5 290.83,442.49 271.74,423.4 271.73,423.4 271.73,423.39 
	252.64,404.3 252.63,404.3 252.63,404.29 271.72,385.2 271.74,385.2 290.83,404.29 290.83,404.3 290.84,404.3 309.93,423.39 
	309.95,423.4 348.14,423.4 348.14,423.39 329.05,404.3 329.04,404.3 329.04,404.29 309.95,385.2 309.93,385.2 309.93,385.19 
	290.84,366.1 290.83,366.1 290.83,366.09 271.74,347 271.72,347 252.63,366.09 252.63,366.1 252.62,366.1 233.53,385.19 
	233.53,385.2 233.52,385.2 "/>
<polygon class="st0" points="383.92,395.61 357.5,423.19 343.71,409.98 356.92,396.19 287.95,330.12 274.74,343.9 274.16,316.91 
	274.16,316.9 287.37,303.11 "/>
<rect x="312.29" y="431.81" transform="matrix(0.2196 -0.9756 0.9756 0.2196 -179.055 655.0387)" class="st0" width="15.26" height="15.26"/>
</svg>
